<svg width="221" height="71" viewBox="0 0 221 71" fill="none" xmlns="http://www.w3.org/2000/svg">
<mask id="mask0" mask-type="alpha" maskUnits="userSpaceOnUse" x="0" y="20" width="82" height="51">
<path fill-rule="evenodd" clip-rule="evenodd" d="M0 20H82V71H0V20Z" fill="white"/>
</mask>
<g mask="url(#mask0)">
<path fill-rule="evenodd" clip-rule="evenodd" d="M78.7666 38.9525C78.7666 33.4023 78.0883 29.4762 76.734 27.1754C75.3775 24.8735 73.4494 23.1032 70.9475 21.8615C68.4457 20.6219 65.6559 20 62.5814 20C60.4432 20 58.4372 20.3169 56.5603 20.9474C54.6834 21.5812 52.8331 22.5275 51.0085 23.7907C49.1838 25.055 47.3591 27.0637 45.5355 29.8157C44.0756 26.8821 42.6028 24.8176 41.1173 23.6221C39.6318 22.4265 37.8594 21.5232 35.8001 20.9141C33.7408 20.3051 31.5909 20 29.3503 20C27.1609 20 25.075 20.3051 23.0946 20.9141C21.1132 21.5232 19.2896 22.4491 17.6217 23.6897C15.9527 24.9315 14.1803 26.9724 12.3045 29.8157V21.2858H3.23448V67.2609H0V70.985H15.5379V67.2609H12.3045V45.4501C12.3045 41.2093 12.9806 37.8472 14.3371 35.3648C15.6915 32.8835 17.5556 30.8973 19.9284 29.4086C22.2991 27.9198 24.7369 27.1754 27.2388 27.1754C28.9589 27.1754 30.5874 27.5589 32.1262 28.3258C33.663 29.0928 34.771 30.211 35.4492 31.6761C36.1253 33.1423 36.4645 36.6516 36.4645 42.2007V67.2609H33.2289V70.985H48.7658V67.2609H45.5355V45.4501C45.5355 41.0739 46.2127 37.656 47.5681 35.1951C48.9236 32.7374 50.7354 30.7856 53.0027 29.3409C55.2699 27.8972 57.759 27.1754 60.4698 27.1754C62.3979 27.1754 64.0274 27.5589 65.3573 28.3258C66.686 29.0928 67.7418 30.211 68.5235 31.6761C69.3052 33.1423 69.6966 36.6516 69.6966 42.2007V67.277H66.4664V71H82V67.277H78.7666V38.9525Z" fill="#403E3E"/>
</g>
<path fill-rule="evenodd" clip-rule="evenodd" d="M158.706 38.4158C158.706 33.226 157.935 29.4567 156.395 27.11C154.854 24.7622 152.716 22.9903 149.981 21.7944C147.245 20.5985 144.126 20 140.621 20C138.177 20 135.96 20.3159 133.969 20.9477C131.977 21.5806 130.065 22.5165 128.233 23.7575C126.401 24.9996 124.5 26.8843 122.536 29.4115V21.2862H113.296V67.2747H110V71H125.834V67.2747H122.536V45.1862C122.536 40.7185 123.279 37.2769 124.768 34.8614C126.253 32.447 128.219 30.5623 130.662 29.2085C133.105 27.8535 135.682 27.1766 138.391 27.1766C140.621 27.1766 142.693 27.6741 144.604 28.6658C146.516 29.6597 147.803 31.0362 148.469 32.7962C149.132 34.5573 149.464 37.5358 149.464 41.7328V67.2747H146.169V71H162V67.2747H158.706V38.4158Z" fill="#403E3E"/>
<mask id="mask1" mask-type="alpha" maskUnits="userSpaceOnUse" x="169" y="0" width="52" height="71">
<path fill-rule="evenodd" clip-rule="evenodd" d="M169 0H221V71H169V0Z" fill="white"/>
</mask>
<g mask="url(#mask1)">
<path fill-rule="evenodd" clip-rule="evenodd" d="M206.407 54.1213C205.21 57.0254 203.367 59.2194 200.872 60.7041C198.378 62.19 195.701 62.9318 192.844 62.9318C188.426 62.9318 184.814 61.5916 182.009 58.9091C179.202 56.2266 177.8 51.4061 177.8 44.4465C177.8 38.5507 179.253 34.1059 182.165 31.1142C185.074 28.1214 188.712 26.625 193.077 26.625C197.858 26.625 201.574 28.3103 204.224 31.6787C206.874 35.0482 208.2 39.3485 208.2 44.5795C208.2 48.0366 207.601 51.2182 206.407 54.1213V54.1213ZM217.782 67.2566V0H208.758V29.2649C206.837 26.3617 205.087 24.3302 203.505 23.1734C201.923 22.0167 200.121 21.1559 198.099 20.5878C196.075 20.0208 193.896 19.7367 191.563 19.7367C184.457 19.7367 178.92 22.1193 174.952 26.8834C170.983 31.6464 169 37.6136 169 44.7808C169 49.6367 169.945 54.0152 171.84 57.9163C173.733 61.8185 176.391 64.7455 179.814 66.696C183.237 68.6455 186.998 69.6219 191.096 69.6219C193.222 69.6219 195.375 69.394 197.553 68.9414C199.732 68.4878 201.688 67.6713 203.428 66.4919C205.165 65.3125 206.941 63.1805 208.758 60.0948V67.2566H205.54V71H221V67.2566H217.782Z" fill="#403E3E"/>
</g>
<path fill-rule="evenodd" clip-rule="evenodd" d="M96.4514 14.9958V15C96.4683 15 96.4842 14.9979 96.5 14.9979C96.5169 14.9979 96.5327 15 96.5496 15V14.9958C100.673 14.9423 104 11.6087 104 7.5C104 3.39126 100.673 0.0576923 96.5496 0.0041958V0C96.5327 0 96.5169 0.0020979 96.5 0.0020979C96.4842 0.0020979 96.4683 0 96.4514 0V0.0041958C92.3277 0.0576923 89 3.39126 89 7.5C89 11.6087 92.3277 14.9423 96.4514 14.9958" fill="#403E3E"/>
<path fill-rule="evenodd" clip-rule="evenodd" d="M104.518 21.1582C104.438 21.0293 104.344 20.923 104.245 20.8284C102.731 18.5404 99.9112 17 96.6805 17C96.6391 17 96.5966 17.0021 96.5541 17.0032H96.5499V17C96.5329 17 96.517 17.0011 96.5 17.0011C96.484 17.0011 96.467 17 96.4511 17V17.0032H96.4469C96.4033 17.0021 96.3619 17 96.3194 17C93.0887 17 90.269 18.5404 88.7556 20.8284C88.6557 20.923 88.5623 21.0293 88.4816 21.1582C87.462 22.7996 86.4669 25.0995 86.0367 28.1727C85.1786 34.3075 85.0267 39.4937 85.0002 41.133C84.9928 41.6249 85.1977 42.103 85.5854 42.3984C86.1408 42.8216 87.1625 43.1772 88.9552 42.6487V71H96.4511H96.5499H104.045V42.6487C105.838 43.1772 106.86 42.8216 107.415 42.3984C107.803 42.103 108.008 41.6249 108 41.133C107.973 39.4937 107.821 34.3075 106.963 28.1727C106.533 25.0995 105.538 22.7996 104.518 21.1582" fill="#403E3E"/>
</svg>
