<svg width="136" height="43" viewBox="0 0 136 43" fill="none" xmlns="http://www.w3.org/2000/svg">
<mask id="mask0" mask-type="alpha" maskUnits="userSpaceOnUse" x="0" y="11" width="51" height="32">
<path fill-rule="evenodd" clip-rule="evenodd" d="M0 11.3469H50.9283V42.9996H0V11.3469Z" fill="white"/>
</mask>
<g mask="url(#mask0)">
<path fill-rule="evenodd" clip-rule="evenodd" d="M48.92 23.1096C48.92 19.6649 48.4988 17.2283 47.6576 15.8003C46.8151 14.3716 45.6176 13.2729 44.0638 12.5023C42.5099 11.7329 40.7772 11.3469 38.8677 11.3469C37.5397 11.3469 36.2939 11.5436 35.1282 11.9349C33.9624 12.3283 32.8133 12.9156 31.68 13.6996C30.5468 14.4843 29.4135 15.7309 28.2809 17.4389C27.3742 15.6183 26.4595 14.3369 25.5368 13.5949C24.6142 12.8529 23.5134 12.2923 22.2344 11.9143C20.9555 11.5363 19.6202 11.3469 18.2286 11.3469C16.8688 11.3469 15.5733 11.5363 14.3433 11.9143C13.1127 12.2923 11.9801 12.8669 10.9442 13.6369C9.90767 14.4076 8.80686 15.6743 7.64181 17.4389V12.1449H2.00863V40.6789H-0.000244141V42.9903H9.65002V40.6789H7.64181V27.1423C7.64181 24.5103 8.06173 22.4236 8.90422 20.8829C9.74539 19.3429 10.9032 18.1103 12.3769 17.1863C13.8492 16.2623 15.3633 15.8003 16.9172 15.8003C17.9855 15.8003 18.9969 16.0383 19.9527 16.5143C20.9071 16.9903 21.5953 17.6843 22.0165 18.5936C22.4364 19.5036 22.6471 21.6816 22.6471 25.1256V40.6789H20.6375V42.9903H30.2871V40.6789H28.2809V27.1423C28.2809 24.4263 28.7015 22.3049 29.5433 20.7776C30.3852 19.2523 31.5105 18.0409 32.9186 17.1443C34.3267 16.2483 35.8726 15.8003 37.5563 15.8003C38.7538 15.8003 39.7658 16.0383 40.5918 16.5143C41.4171 16.9903 42.0728 17.6843 42.5583 18.5936C43.0438 19.5036 43.2868 21.6816 43.2868 25.1256V40.6889H41.2806V42.9996H50.9282V40.6889H48.92V23.1096Z" fill="white"/>
</g>
<path fill-rule="evenodd" clip-rule="evenodd" d="M97.036 23.1939C97.036 20.0393 96.5767 17.7482 95.6588 16.3217C94.7397 14.8947 93.4655 13.8177 91.8351 13.0907C90.204 12.3638 88.3443 12 86.2546 12C84.7978 12 83.4764 12.192 82.289 12.5761C81.1017 12.9607 79.9616 13.5296 78.8695 14.284C77.7773 15.039 76.6444 16.1846 75.4732 17.7207V12.7818H69.9647V40.7356H68V43H77.4392V40.7356H75.4732V27.3093C75.4732 24.5936 75.9163 22.5016 76.8037 21.0334C77.6892 19.5658 78.861 18.4202 80.3179 17.5973C81.774 16.7737 83.3105 16.3622 84.9254 16.3622C86.2546 16.3622 87.4899 16.6646 88.6293 17.2675C89.7694 17.8716 90.5363 18.7083 90.9334 19.7781C91.3285 20.8486 91.5268 22.659 91.5268 25.2101V40.7356H89.5621V43H99V40.7356H97.036V23.1939Z" fill="white"/>
<mask id="mask1" mask-type="alpha" maskUnits="userSpaceOnUse" x="103" y="0" width="33" height="43">
<path fill-rule="evenodd" clip-rule="evenodd" d="M103.047 0.160889H135.39V42.9901H103.047V0.160889Z" fill="white"/>
</mask>
<g mask="url(#mask1)">
<path fill-rule="evenodd" clip-rule="evenodd" d="M126.662 32.9836C125.919 34.7765 124.775 36.131 123.226 37.0477C121.677 37.9651 120.015 38.4231 118.242 38.4231C115.499 38.4231 113.257 37.5956 111.515 35.9395C109.773 34.2833 108.902 31.3072 108.902 27.0105C108.902 23.3705 109.805 20.6263 111.612 18.7792C113.418 16.9315 115.677 16.0077 118.387 16.0077C121.355 16.0077 123.661 17.0482 125.307 19.1278C126.952 21.2081 127.775 23.863 127.775 27.0926C127.775 29.2269 127.404 31.1913 126.662 32.9836V32.9836ZM133.388 40.732V0.160889H127.775V17.8143C126.58 16.0631 125.492 14.8376 124.508 14.1398C123.524 13.442 122.403 12.9228 121.145 12.5801C119.887 12.238 118.532 12.0667 117.08 12.0667C112.66 12.0667 109.217 13.5039 106.749 16.3778C104.28 19.2509 103.047 22.8506 103.047 27.174C103.047 30.1032 103.635 32.7445 104.813 35.0977C105.99 37.4517 107.644 39.2173 109.773 40.3939C111.902 41.5699 114.241 42.1589 116.79 42.1589C118.112 42.1589 119.451 42.0214 120.806 41.7484C122.161 41.4748 123.378 40.9822 124.46 40.2708C125.54 39.5593 126.645 38.2732 127.775 36.4118V40.732H125.774V42.9902H135.39V40.732H133.388Z" fill="white"/>
</g>
<path fill-rule="evenodd" clip-rule="evenodd" d="M59.4709 8.99748V9C59.481 9 59.4905 8.99874 59.5 8.99874C59.5101 8.99874 59.5196 9 59.5298 9V8.99748C62.004 8.96538 64 6.96524 64 4.5C64 2.03476 62.004 0.0346154 59.5298 0.00251748V0C59.5196 0 59.5101 0.00125874 59.5 0.00125874C59.4905 0.00125874 59.481 0 59.4709 0V0.00251748C56.9966 0.0346154 55 2.03476 55 4.5C55 6.96524 56.9966 8.96538 59.4709 8.99748" fill="white"/>
<path fill-rule="evenodd" clip-rule="evenodd" d="M63.8808 12.5411C63.8316 12.4624 63.7747 12.3974 63.7146 12.3396C62.7928 10.9414 61.0764 10 59.1099 10C59.0847 10 59.0588 10.0013 59.033 10.002H59.0304V10C59.02 10 59.0103 10.0007 59 10.0007C58.9903 10.0007 58.9799 10 58.9702 10V10.002H58.9677C58.9412 10.0013 58.9159 10 58.8901 10C56.9236 10 55.2072 10.9414 54.286 12.3396C54.2252 12.3974 54.1683 12.4624 54.1192 12.5411C53.4986 13.5442 52.8929 14.9497 52.6311 16.8278C52.1087 20.5768 52.0163 23.7462 52.0001 24.7479C51.9956 25.0486 52.1204 25.3407 52.3563 25.5212C52.6944 25.7799 53.3163 25.9972 54.4075 25.6742V43H58.9702H59.0304H63.5924V25.6742C64.6843 25.9972 65.3062 25.7799 65.6436 25.5212C65.8803 25.3407 66.005 25.0486 65.9998 24.7479C65.9837 23.7462 65.8912 20.5768 65.3689 16.8278C65.1071 14.9497 64.5014 13.5442 63.8808 12.5411" fill="white"/>
</svg>
